HIERARCHY
ROOT Hips
{
	OFFSET 0.000000 0.000000 0.000000
	CHANNELS 6 Xposition Yposition Zposition Zrotation Yrotation Xrotation 
	JOINT LHipJoint
	{
		OFFSET 0.000000 0.000000 0.000000
		CHANNELS 3 Zrotation Yrotation Xrotation
		JOINT LeftUpLeg
		{
			OFFSET 1.363060 -1.794630 0.839290
			CHANNELS 3 Zrotation Yrotation Xrotation
			JOINT LeftLeg
			{
				OFFSET 2.448110 -6.726130 0.000000
				CHANNELS 3 Zrotation Yrotation Xrotation
				JOINT LeftFoot
				{
					OFFSET 2.562200 -7.039590 0.000000
					CHANNELS 3 Zrotation Yrotation Xrotation
					JOINT LeftToeBase
					{
						OFFSET 0.157640 -0.433110 2.322550
						CHANNELS 3 Zrotation Yrotation Xrotation
						End Site
						{
							OFFSET 0.000000 0.000000 0.000000
						}
					}
				}
			}
		}
	}
	JOINT RHipJoint
	{
		OFFSET 0.000000 0.000000 0.000000
		CHANNELS 3 Zrotation Yrotation Xrotation
		JOINT RightUpLeg
		{
			OFFSET -1.305520 -1.794630 0.839290
			CHANNELS 3 Zrotation Yrotation Xrotation
			JOINT RightLeg
			{
				OFFSET -2.542530 -6.985550 0.000000
				CHANNELS 3 Zrotation Yrotation Xrotation
				JOINT RightFoot
				{
					OFFSET -2.568260 -7.056230 0.000000
					CHANNELS 3 Zrotation Yrotation Xrotation
					JOINT RightToeBase
					{
						OFFSET -0.164730 -0.452590 2.363150
						CHANNELS 3 Zrotation Yrotation Xrotation
						End Site
						{
							OFFSET 0.000000 0.000000 0.000000
						}
					}
				}
			}
		}
	}
	JOINT LowerBack
	{
		OFFSET 0.000000 0.000000 0.000000
		CHANNELS 3 Zrotation Yrotation Xrotation
		JOINT Spine
		{
			OFFSET 0.028270 2.035590 -0.193380
			CHANNELS 3 Zrotation Yrotation Xrotation
			JOINT Spine1
			{
				OFFSET 0.056720 2.048850 -0.042750
				CHANNELS 3 Zrotation Yrotation Xrotation
				JOINT Neck
				{
					OFFSET 0.000000 0.000000 0.000000
					CHANNELS 3 Zrotation Yrotation Xrotation
					JOINT Neck1
					{
						OFFSET -0.054170 1.746240 0.172020
						CHANNELS 3 Zrotation Yrotation Xrotation
						JOINT Head
						{
							OFFSET 0.104070 1.761360 -0.123970
							CHANNELS 3 Zrotation Yrotation Xrotation
							End Site
							{
								OFFSET 0.000000 0.000000 0.000000
							}
						}
					}
				}
				JOINT LeftShoulder
				{
					OFFSET 0.000000 0.000000 0.000000
					CHANNELS 3 Zrotation Yrotation Xrotation
					JOINT LeftArm
					{
						OFFSET 3.362410 1.200890 -0.311210
						CHANNELS 3 Zrotation Yrotation Xrotation
						JOINT LeftForeArm
						{
							OFFSET 4.983000 -0.000000 -0.000000
							CHANNELS 3 Zrotation Yrotation Xrotation
							JOINT LeftHand
							{
								OFFSET 3.483560 -0.000000 -0.000000
								CHANNELS 3 Zrotation Yrotation Xrotation
								JOINT LeftFingerBase
								{
									OFFSET 0.000000 0.000000 0.000000
									CHANNELS 3 Zrotation Yrotation Xrotation
									JOINT LeftHandIndex1
									{
										OFFSET 0.715260 -0.000000 -0.000000
										CHANNELS 3 Zrotation Yrotation Xrotation
										End Site
										{
											OFFSET 0.000000 0.000000 0.000000
										}
									}
								}
								JOINT LThumb
								{
									OFFSET 0.000000 0.000000 0.000000
									CHANNELS 3 Zrotation Yrotation Xrotation
									End Site
									{
										OFFSET 0.000000 0.000000 0.000000
									}
								}
							}
						}
					}
				}
				JOINT RightShoulder
				{
					OFFSET 0.000000 0.000000 0.000000
					CHANNELS 3 Zrotation Yrotation Xrotation
					JOINT RightArm
					{
						OFFSET -3.136600 1.374050 -0.404650
						CHANNELS 3 Zrotation Yrotation Xrotation
						JOINT RightForeArm
						{
							OFFSET -5.241900 -0.000000 -0.000000
							CHANNELS 3 Zrotation Yrotation Xrotation
							JOINT RightHand
							{
								OFFSET -3.444170 -0.000000 -0.000000
								CHANNELS 3 Zrotation Yrotation Xrotation
								JOINT RightFingerBase
								{
									OFFSET 0.000000 0.000000 0.000000
									CHANNELS 3 Zrotation Yrotation Xrotation
									JOINT RightHandIndex1
									{
										OFFSET -0.622530 -0.000000 -0.000000
										CHANNELS 3 Zrotation Yrotation Xrotation
										End Site
										{
											OFFSET 0.000000 0.000000 0.000000
										}
									}
								}
								JOINT RThumb
								{
									OFFSET 0.000000 0.000000 0.000000
									CHANNELS 3 Zrotation Yrotation Xrotation
									End Site
									{
										OFFSET 0.000000 0.000000 0.000000
									}
								}
							}
						}
					}
				}
			}
		}
	}
}
MOTION
Frames: 6
Frame Time: 0.008333
0.878352 17.829633 8.490473 -5.709679 -6.517126 3.247724 -1.852571 3.912352 2.314959 -9.040856 -10.587385 -27.463036 -1.485892 5.728124 17.824776 1.296974 -0.731962 17.562736 0.042900 -1.336300 -3.674800 2.260549 -5.308769 6.294583 26.339753 7.690645 4.500729 -2.102762 -7.435144 29.607539 0.191346 -1.575519 4.287137 -0.154600 2.533800 -6.983300 5.218457 2.610594 5.557253 3.534740 4.069880 3.151658 -1.986578 1.932669 -7.802606 -4.920922 -3.736843 -16.573350 4.467989 -4.215172 12.963693 0.078700 -1.736800 7.734200 -7.292097 2.821798 -1.263883 -83.141140 6.120919 18.105127 8.810908 -15.453934 -1.225242 -0.644283 -0.667441 -2.525644 26.213792 12.799764 6.718400 -7.125000 0.000000 0.000000 -0.452200 44.970800 0.000300 11.252576 -1.643721 -2.358168 72.213283 5.535435 16.368522 -13.155530 25.991338 -3.726788 1.029551 -0.199508 0.151015 -18.463645 19.044618 -6.617900 7.125000 0.000000 0.000000 5.666500 -9.853200 4.636600 
0.889577 17.840658 8.709560 -5.061275 -6.499009 2.887014 -1.911444 3.970892 2.341504 -9.501483 -11.339203 -26.998282 -1.423816 5.800132 18.258598 1.343897 -0.773681 19.087138 0.073900 1.754300 4.827200 2.183463 -5.328022 6.288103 25.572423 7.450458 4.075971 -2.535989 -8.032946 31.570037 0.117187 -1.321545 6.187697 -0.216400 2.994800 -8.264200 4.480351 2.585656 5.420496 3.388093 3.946763 3.327357 -1.630020 1.900100 -7.652207 -5.023315 -3.802544 -16.752017 4.609448 -4.274673 13.456312 0.137200 -1.737900 7.914800 -7.304340 2.838894 -1.265198 -83.262233 6.119484 17.520268 8.665360 -15.200804 -1.183395 -0.655570 -0.640751 -1.988103 26.222051 12.136432 6.389000 -7.125000 0.000000 0.000000 -0.360500 44.216900 0.007000 11.268055 -1.632663 -2.342311 72.273020 5.548140 15.724369 -12.833299 25.532968 -3.567856 1.044144 -0.230037 0.530218 -18.641548 19.392013 -6.810700 7.125000 0.000000 0.000000 5.564100 -9.445900 4.597800 
0.899600 17.847974 8.922935 -4.542893 -6.551614 2.555910 -1.922423 4.052148 2.505422 -10.456649 -10.878626 -26.419158 -1.367649 5.924667 18.978743 1.652957 -2.578998 18.221549 0.000100 0.047300 0.129800 2.089303 -5.331283 6.213099 24.979588 7.300896 3.510910 -3.049765 -8.690425 33.761430 0.128323 -1.416370 8.488819 -0.252100 3.230700 -8.921600 3.888303 2.615923 5.461358 3.229778 3.929532 3.422959 -1.402332 1.900303 -7.661082 -5.074971 -3.875930 -16.853785 4.818664 -4.375785 13.741941 0.202300 -1.756400 8.020200 -7.316248 2.850643 -1.257904 -83.293258 5.986214 16.719268 8.294644 -14.586674 -1.078707 -0.681183 -0.615664 -1.539527 26.586866 11.516924 6.176500 -7.125000 0.000000 0.000000 0.061400 43.553400 -0.002200 11.282292 -1.637589 -2.340305 72.458264 5.280945 14.800711 -12.582135 25.179236 -3.445171 1.053367 -0.287596 0.848011 -18.540977 20.327682 -7.101400 7.125000 0.000000 0.000000 5.687600 -8.437700 4.815900 
0.920045 17.852484 9.134305 -4.069865 -6.401127 2.388889 -1.932666 4.118273 2.602334 -11.396792 -10.652740 -26.017307 -1.237977 6.124619 19.761973 1.584093 -2.653086 17.661171 0.001100 -0.212200 -0.583100 2.005800 -5.315710 6.127225 24.289448 6.866030 2.474742 -3.594673 -9.345292 36.007604 0.062297 -1.389552 11.141250 -0.164300 2.611800 -7.199700 3.538955 2.555511 5.432608 3.044254 3.818801 3.355352 -1.315613 1.842216 -7.722169 -5.109298 -3.897647 -16.657587 4.857706 -4.422211 13.745289 0.216500 -1.777400 7.990300 -7.311378 2.846292 -1.255800 -83.350157 6.228277 16.048129 8.216132 -14.461705 -1.055549 -0.685558 -0.623669 -1.258367 26.641619 11.892233 6.383800 -7.125000 0.000000 0.000000 0.073800 43.988800 -0.001800 11.294225 -1.664536 -2.353032 72.662979 4.851872 14.075808 -12.483682 25.048021 -3.411860 1.042967 -0.275892 1.017688 -18.233799 19.956479 -6.855400 7.125000 0.000000 0.000000 5.865300 -8.876700 4.916500 
0.941693 17.856092 9.335251 -3.752624 -6.172085 2.314056 -1.895348 4.155374 2.665172 -12.192063 -10.435650 -25.882756 -1.055613 6.419499 20.742634 1.459964 -2.535225 16.629845 0.015600 -0.807600 -2.219400 1.924883 -5.277012 6.022682 23.770485 6.347335 1.187238 -4.156278 -9.964924 38.201121 -0.017316 -1.477828 13.995226 -0.080200 1.827300 -5.028600 3.349071 2.449574 5.394329 2.943496 3.665660 3.260454 -1.253721 1.759724 -7.782853 -5.118696 -3.888906 -16.521910 4.797323 -4.415000 13.876659 0.203600 -1.776500 8.008200 -7.305530 2.844104 -1.258406 -83.406706 6.546180 15.917700 8.348905 -14.700561 -1.086371 -0.661540 -0.706806 -1.171780 26.255955 14.688143 7.669700 -7.125000 0.000000 0.000000 -0.670100 47.114700 -0.035000 11.300503 -1.685464 -2.364288 72.791441 4.438819 13.552598 -12.432614 24.984003 -3.400024 1.037894 -0.242980 1.091747 -18.162792 19.247147 -6.587400 7.125000 0.000000 0.000000 5.867900 -9.653400 4.826900 
0.961036 17.863008 9.536198 -3.758873 -5.782410 2.107321 -1.856508 4.203392 2.750766 -12.553094 -10.360588 -25.560036 -0.920535 6.638050 21.545822 1.546773 -3.155562 16.181103 0.000200 0.087100 0.239400 1.856512 -5.228793 5.912709 23.668115 5.675436 0.017919 -4.750479 -10.536748 40.303634 -0.051228 -1.981899 17.144740 -0.051600 1.466300 -4.033000 3.514478 2.309750 5.425566 2.913644 3.504732 3.335784 -1.335300 1.668811 -7.728012 -5.260875 -3.931591 -16.423490 5.046913 -4.477735 13.863449 0.294800 -1.790400 7.993800 -7.312587 2.842238 -1.256433 -83.308454 6.302345 15.573088 8.188379 -14.459602 -1.035535 -0.641354 -0.806478 -0.506462 25.667523 18.365297 9.214900 -7.125000 0.000000 0.000000 -1.964000 51.142800 -0.297300 11.316795 -1.693027 -2.365424 72.956209 4.171671 12.484053 -12.096423 24.495676 -3.230049 1.058195 -0.331900 2.049778 -18.424506 20.568744 -7.146100 7.125000 0.000000 0.000000 5.773000 -8.181200 4.918400 
